<svg xmlns="http://www.w3.org/2000/svg" style="position:absolute;width:1px;height:1px;overflow:hidden;opacity:0;pointer-events:none">
<!-- WebPaint 本地 stopgap 补丁 sprite —— 共享库（20260708 SVG Icons）里还没有的图标先用
     【中文字烤成轮廓 path】顶位（旧协议：占地不解决 pictogram，每条都是过渡态待真图形）。
     字形烤自系统 DroidSansFallbackFull（Apache-2.0），不依赖设备字体，无豆腐块。

     机制（自愈）：tools/inline-sprites.py 把本文件与 assets/icons.svg 合并内联；
     assets/icons.svg（上游钉死拷贝）里已有同名 symbol 时，本文件的副本【自动让位】。
     即：图标画进库 → 重跑 extract + inline → 这里对应条目失效，宿主 <use> 一字不改。

     需求登记：全局清单 ../20260708 SVG Icons/TODO.md（美工 agent 的取活处）。
     重新烤制：仓库根跑 python3 tools/bake-stopgap-glyphs.py（SPECS 即声明）。
-->
  <symbol id="fill-gap" data-cat="stopgap" data-src="baked:DroidSansFallbackFull(Apache-2.0)/DejaVuSans-Bold(Bitstream-Vera)" data-note="魔棒容隙 toggle（v0.7.24：缺口宽<n px 处 flood 过不去；EDT 受限 flood+回贴膨胀）。真图标建议=断口线条+跨缺口的桥/虚线补段（与 selection-expand 同笔重；区别于 auto-expand 的向外箭头语义）" viewBox="0 0 24 24"><path d="M9.16 3.78V5.18L7.29 9.86Q8.92 12.04 8.92 14.14Q8.92 17.26 6.58 17.26L5.49 17.1L5.18 15.55L6.58 15.78Q7.52 15.78 7.52 14.14Q7.52 12.12 5.81 10.09L7.6 5.18H4.71V21H3.31V3.78ZM10.01 8.77H13.91V3H15.39V8.77H19.21V15.39H15.39V19.44Q15.31 21 13.44 21L11.65 20.77L11.34 19.36L13.44 19.52Q13.83 19.52 13.83 18.9V15.39H10.01ZM11.42 11.49H17.73V10.09H11.42ZM11.42 14.06H17.73V12.66H11.42ZM11.88 3.78 12.97 4.71Q11.57 6.9 9.55 8.06L8.77 6.74Q10.48 5.73 11.88 3.78ZM17.57 3.86 20.45 6.82 19.21 7.99Q18.04 6.35 16.32 4.71ZM11.18 15.78 12.35 16.64Q10.87 19.05 8.84 20.38L7.83 19.21Q10.01 17.73 11.18 15.78ZM17.65 15.94Q19.21 17.26 20.69 19.21L19.52 20.3L16.56 16.71Z" fill="currentColor" stroke="none"/></symbol>
</svg>
